<svg height="480pt" viewBox="0 -8 480 480" width="480pt" xmlns="http://www.w3.org/2000/svg" xmlns:xlink="http://www.w3.org/1999/xlink"><linearGradient id="a"><stop offset="0" stop-color="#e93e3a"/><stop offset=".35" stop-color="#ed683c"/><stop offset=".7" stop-color="#f3903f"/><stop offset="1" stop-color="#fdc70c"/></linearGradient><linearGradient id="b" gradientUnits="userSpaceOnUse" x1="120.152" x2="119.128" xlink:href="#a" y1="488.992" y2="-9.192"/><linearGradient id="c" gradientUnits="userSpaceOnUse" x1="384.632" x2="383.6" xlink:href="#a" y1="488.448" y2="-9.736"/><linearGradient id="d" gradientUnits="userSpaceOnUse" x1="277.208" x2="276.176" xlink:href="#a" y1="488.672" y2="-9.52"/><path d="m198.742188 318.601562-46.742188-12.722656v-12c15.023438-10.445312 23.984375-27.582031 24-45.878906v-8c4.417969 0 8-3.582031 8-8v-24c0-35.347656-28.652344-64-64-64s-64 28.652344-64 64v24c0 4.417969 3.582031 8 8 8v8c.011719 18.300781 8.976562 35.4375 24 45.886719v12l-46.769531 12.722656c-24.300781 6.726563-41.1562502 28.8125-41.230469 54.03125v83.359375c0 4.417969 3.582031 8 8 8h224c4.417969 0 8-3.582031 8-8v-83.359375c-.078125-25.226563-16.941406-47.316406-41.257812-54.039063zm-126.742188-110.601562c0-26.507812 21.492188-48 48-48s48 21.492188 48 48v16h-5.257812c-7.347657.011719-13.761719-4.988281-15.542969-12.121094l-3.445313-13.816406c-.75-2.992188-3.152344-5.289062-6.179687-5.902344-.515625-.105468-1.046875-.15625-1.574219-.160156-2.519531 0-4.890625 1.1875-6.398438 3.199219l-4.800781 6.402343c-10.605469 14.0625-27.183593 22.351563-44.800781 22.398438h-8zm8 40v-8c19.726562-.042969 38.578125-8.132812 52.199219-22.398438 3.898437 12.355469 14.886719 21.121094 27.800781 22.175782v8.222656c0 22.089844-17.910156 40-40 40s-40-17.910156-40-40zm40 56c5.421875-.015625 10.8125-.824219 16-2.398438v10.398438c.027344 2.292969 1.042969 4.460938 2.792969 5.945312l-18.792969 15.65625-18.792969-15.648437c1.75-1.484375 2.769531-3.65625 2.792969-5.953125v-10.398438c5.1875 1.574219 10.578125 2.382813 16 2.398438zm104 144h-24v-72h-16v72h-128v-72h-16v72h-24v-75.359375c.058594-18.015625 12.101562-33.792969 29.464844-38.601563l37.734375-10.261718 31.679687 26.398437c2.96875 2.472657 7.273438 2.472657 10.242188 0l31.679687-26.398437 37.710938 10.253906c17.371093 4.804688 29.421875 20.585938 29.488281 38.609375zm0 0" fill="url(#b)"/><path d="m296 0c-4.417969 0-8 3.582031-8 8v176c0 4.417969 3.582031 8 8 8h176c4.417969 0 8-3.582031 8-8-.109375-101.574219-82.425781-183.890625-184-184zm8 176v-159.816406c86.453125 4.226562 155.589844 73.363281 159.816406 159.816406zm0 0" fill="url(#c)"/><path d="m440 208h-168v-168c0-4.417969-3.582031-8-8-8-65.371094.15625-125.792969 34.835938-158.902344 91.199219l13.804688 8.082031c28.792968-49.015625 80.324218-80.246094 137.097656-83.089844v167.808594c0 4.417969 3.582031 8 8 8h167.816406c-4.378906 89.523438-78.183594 159.894531-167.816406 160-2.558594 0-5.121094-.0625-7.648438-.167969l-.703124 16c2.765624.113281 5.550781.167969 8.351562.167969 101.574219-.109375 183.890625-82.425781 184-184 0-4.417969-3.582031-8-8-8zm0 0" fill="url(#d)"/></svg>