<?xml version="1.0" encoding="iso-8859-1"?>
<!-- Generator: Adobe Illustrator 19.0.0, SVG Export Plug-In . SVG Version: 6.00 Build 0)  -->
<svg version="1.1" id="Capa_1" xmlns="http://www.w3.org/2000/svg" xmlns:xlink="http://www.w3.org/1999/xlink" x="0px" y="0px"
	 viewBox="0 0 490.667 490.667" style="enable-background:new 0 0 490.667 490.667;" xml:space="preserve">
<path style="fill:#FFC107;" d="M96,0h298.667c53.019,0,96,42.981,96,96v298.667c0,53.019-42.981,96-96,96H96
	c-53.019,0-96-42.981-96-96V96C0,42.981,42.981,0,96,0z"/>
<path style="fill:#455A64;" d="M320,202.667c0.154-41.237-33.149-74.791-74.386-74.946c-41.237-0.154-74.791,33.149-74.946,74.386
	c-0.085,22.65,10.116,44.114,27.732,58.351l-16.832,89.6c-1.072,5.793,2.754,11.358,8.547,12.43
	c0.622,0.115,1.253,0.175,1.885,0.178h106.667c5.891-0.005,10.662-4.786,10.657-10.677c-0.001-0.655-0.062-1.309-0.182-1.953
	l-16.832-89.6C309.791,246.351,319.969,225.117,320,202.667z"/>
<g>
</g>
<g>
</g>
<g>
</g>
<g>
</g>
<g>
</g>
<g>
</g>
<g>
</g>
<g>
</g>
<g>
</g>
<g>
</g>
<g>
</g>
<g>
</g>
<g>
</g>
<g>
</g>
<g>
</g>
</svg>
