<svg xmlns="http://www.w3.org/2000/svg" height="511pt" version="1.1" viewBox="1 -120 511.999 511" width="511pt">
<g id="surface1">
<path d="M 223.9375 87.644531 C 228.078125 87.644531 231.4375 84.285156 231.4375 80.144531 C 231.4375 76.003906 228.078125 72.644531 223.9375 72.644531 L 159.808594 72.644531 C 155.664062 72.644531 152.308594 76.003906 152.308594 80.144531 L 152.308594 192.371094 C 152.308594 196.511719 155.664062 199.871094 159.808594 199.871094 L 223.9375 199.871094 C 228.078125 199.871094 231.4375 196.511719 231.4375 192.371094 C 231.4375 188.226562 228.078125 184.871094 223.9375 184.871094 L 167.308594 184.871094 L 167.308594 143.753906 L 215.917969 143.757812 C 220.0625 143.757812 223.417969 140.402344 223.417969 136.257812 C 223.417969 132.113281 220.0625 128.757812 215.917969 128.757812 L 167.304688 128.753906 L 167.304688 87.644531 Z M 223.9375 87.644531 " style=" stroke:none;fill-rule:nonzero;fill:rgb(0%,0%,0%);fill-opacity:1;" />
<path d="M 331.699219 73.835938 C 328.21875 71.597656 323.574219 72.605469 321.335938 76.089844 L 291.570312 122.386719 L 261.808594 76.089844 C 259.566406 72.601562 254.925781 71.59375 251.445312 73.835938 C 247.960938 76.074219 246.949219 80.714844 249.191406 84.199219 L 282.65625 136.257812 L 249.191406 188.316406 C 246.949219 191.796875 247.960938 196.441406 251.445312 198.679688 C 252.699219 199.488281 254.105469 199.871094 255.492188 199.871094 C 257.960938 199.871094 260.375 198.65625 261.808594 196.425781 L 291.570312 150.128906 L 321.335938 196.425781 C 322.769531 198.65625 325.183594 199.871094 327.652344 199.871094 C 329.039062 199.871094 330.445312 199.488281 331.699219 198.679688 C 335.183594 196.441406 336.191406 191.800781 333.953125 188.316406 L 300.488281 136.257812 L 333.953125 84.199219 C 336.191406 80.714844 335.183594 76.074219 331.699219 73.835938 Z M 331.699219 73.835938 " style=" stroke:none;fill-rule:nonzero;fill:rgb(0%,0%,0%);fill-opacity:1;" />
<path d="M 353.710938 80.144531 L 353.710938 192.371094 C 353.710938 196.511719 357.070312 199.871094 361.210938 199.871094 C 365.355469 199.871094 368.710938 196.511719 368.710938 192.371094 L 368.710938 80.144531 C 368.710938 76.003906 365.355469 72.644531 361.210938 72.644531 C 357.070312 72.644531 353.710938 76.003906 353.710938 80.144531 Z M 353.710938 80.144531 " style=" stroke:none;fill-rule:nonzero;fill:rgb(0%,0%,0%);fill-opacity:1;" />
<path d="M 428.347656 199.871094 C 432.488281 199.871094 435.847656 196.511719 435.847656 192.371094 L 435.847656 87.644531 L 464.421875 87.644531 C 468.5625 87.644531 471.921875 84.285156 471.921875 80.144531 C 471.921875 76.003906 468.5625 72.644531 464.421875 72.644531 L 392.273438 72.644531 C 388.132812 72.644531 384.773438 76.003906 384.773438 80.144531 C 384.773438 84.285156 388.132812 87.644531 392.273438 87.644531 L 420.847656 87.644531 L 420.847656 192.371094 C 420.847656 196.511719 424.203125 199.871094 428.347656 199.871094 Z M 428.347656 199.871094 " style=" stroke:none;fill-rule:nonzero;fill:rgb(0%,0%,0%);fill-opacity:1;" />
<path d="M 7.5 111.695312 C 11.640625 111.695312 15 108.335938 15 104.195312 L 15 32.046875 C 15 22.921875 22.421875 15.5 31.546875 15.5 L 440.371094 15.5 C 444.511719 15.5 447.871094 12.140625 447.871094 8 C 447.871094 3.859375 444.511719 0.5 440.371094 0.5 L 31.546875 0.5 C 14.152344 0.5 0 14.652344 0 32.046875 L 0 104.195312 C 0 108.335938 3.359375 111.695312 7.5 111.695312 Z M 7.5 111.695312 " style=" stroke:none;fill-rule:nonzero;fill:rgb(0%,0%,0%);fill-opacity:1;" />
<path d="M 480.453125 0.5 L 472.433594 0.5 C 468.292969 0.5 464.933594 3.859375 464.933594 8 C 464.933594 12.140625 468.292969 15.5 472.433594 15.5 L 480.453125 15.5 C 489.578125 15.5 497 22.921875 497 32.046875 L 497 240.46875 C 497 249.59375 489.578125 257.015625 480.453125 257.015625 L 31.546875 257.015625 C 22.421875 257.015625 15 249.59375 15 240.46875 L 15 152.292969 C 15 147.585938 18.824219 143.757812 23.519531 143.757812 L 92.648438 143.757812 L 75.785156 153.875 C 72.234375 156.007812 71.082031 160.613281 73.214844 164.164062 C 74.617188 166.507812 77.101562 167.808594 79.652344 167.808594 C 80.964844 167.808594 82.296875 167.460938 83.503906 166.738281 L 123.585938 142.691406 C 125.84375 141.335938 127.226562 138.890625 127.226562 136.257812 C 127.226562 133.625 125.84375 131.183594 123.585938 129.828125 L 83.503906 105.78125 C 79.949219 103.648438 75.34375 104.800781 73.214844 108.351562 C 71.082031 111.902344 72.234375 116.511719 75.785156 118.640625 L 92.648438 128.757812 L 23.519531 128.757812 C 10.550781 128.757812 0 139.316406 0 152.289062 L 0 240.464844 C 0 257.863281 14.152344 272.015625 31.546875 272.015625 L 480.449219 272.015625 C 497.847656 272.015625 512 257.863281 512 240.464844 L 512 32.046875 C 512 14.652344 497.847656 0.5 480.453125 0.5 Z M 480.453125 0.5 " style=" stroke:none;fill-rule:nonzero;fill:rgb(0%,0%,0%);fill-opacity:1;" />
</g>
</svg>