<svg height="480pt" viewBox="0 0 480 480" width="480pt" xmlns="http://www.w3.org/2000/svg" xmlns:xlink="http://www.w3.org/1999/xlink"><linearGradient id="a"><stop offset="0" stop-color="#e93e3a"/><stop offset=".35" stop-color="#ed683c"/><stop offset=".7" stop-color="#f3903f"/><stop offset="1" stop-color="#fdc70c"/></linearGradient><linearGradient id="b" gradientUnits="userSpaceOnUse" x1="157.32" x2="154.888" xlink:href="#a" y1="500.048" y2="-9.304"/><linearGradient id="c" gradientUnits="userSpaceOnUse" x1="369.2" x2="366.768" xlink:href="#a" y1="499.032" y2="-10.312"/><linearGradient id="d" gradientUnits="userSpaceOnUse" x1="401.848" x2="399.416" xlink:href="#a" y1="498.88" y2="-10.472"/><linearGradient id="e" gradientUnits="userSpaceOnUse" x1="401.464" x2="399.032" xlink:href="#a" y1="498.88" y2="-10.464"/><linearGradient id="f" gradientUnits="userSpaceOnUse" x1="181.512" x2="179.08" xlink:href="#a" y1="499.928" y2="-9.416"/><linearGradient id="g" gradientUnits="userSpaceOnUse" x1="129.392" x2="126.96" xlink:href="#a" y1="500.176" y2="-9.168"/><linearGradient id="h" gradientUnits="userSpaceOnUse" x1="230.944" x2="228.512" xlink:href="#a" y1="499.696" y2="-9.656"/><linearGradient id="i" gradientUnits="userSpaceOnUse" x1="281.776" x2="279.344" xlink:href="#a" y1="499.448" y2="-9.896"/><linearGradient id="j" gradientUnits="userSpaceOnUse" x1="281.624" x2="279.192" xlink:href="#a" y1="499.448" y2="-9.896"/><linearGradient id="k" gradientUnits="userSpaceOnUse" x1="104.936" x2="102.504" xlink:href="#a" y1="500.296" y2="-9.048"/><linearGradient id="l" gradientUnits="userSpaceOnUse" x1="225.28" x2="222.848" xlink:href="#a" y1="499.72" y2="-9.624"/><linearGradient id="m" gradientUnits="userSpaceOnUse" x1="281.28" x2="278.848" xlink:href="#a" y1="499.456" y2="-9.896"/><linearGradient id="n" gradientUnits="userSpaceOnUse" x1="418.152" x2="415.72" xlink:href="#a" y1="498.8" y2="-10.544"/><linearGradient id="o" gradientUnits="userSpaceOnUse" x1="418" x2="415.568" xlink:href="#a" y1="498.8" y2="-10.544"/><linearGradient id="p" gradientUnits="userSpaceOnUse" x1="433.848" x2="431.416" xlink:href="#a" y1="498.728" y2="-10.624"/><linearGradient id="q" gradientUnits="userSpaceOnUse" x1="328.592" x2="326.16" xlink:href="#a" y1="499.224" y2="-10.12"/><linearGradient id="r" gradientUnits="userSpaceOnUse" x1="448.584" x2="446.152" xlink:href="#a" y1="498.656" y2="-10.696"/><linearGradient id="s" gradientUnits="userSpaceOnUse" x1="304.344" x2="301.912" xlink:href="#a" y1="499.344" y2="-10"/><path d="m40 104c0-4.417969 3.582031-8 8-8h264v-16h-264c-13.253906 0-24 10.746094-24 24v232h-16c-4.417969 0-8 3.582031-8 8v24c0 8.835938 7.164062 16 16 16h144v-16h-144v-16h144v-16h-120zm0 0" fill="url(#b)"/><path d="m360 240h16v16h-16zm0 0" fill="url(#c)"/><path d="m352 224h96c13.253906 0 24-10.746094 24-24v-176c0-13.253906-10.746094-24-24-24h-96c-13.253906 0-24 10.746094-24 24v176c0 13.253906 10.746094 24 24 24zm96-16h-96c-4.417969 0-8-3.582031-8-8v-24h112v24c0 4.417969-3.582031 8-8 8zm-96-192h96c4.417969 0 8 3.582031 8 8v136h-112v-136c0-4.417969 3.582031-8 8-8zm0 0" fill="url(#d)"/><path d="m392 184h16v16h-16zm0 0" fill="url(#e)"/><path d="m216 184c-.039062-35.328125-28.671875-63.960938-64-64-4.417969 0-8 3.582031-8 8v56c0 4.417969 3.582031 8 8 8h56c4.417969 0 8-3.582031 8-8zm-56-8v-39.335938c20.128906 3.441407 35.894531 19.207032 39.335938 39.335938zm0 0" fill="url(#f)"/><path d="m184 200h-48v-48c0-4.417969-3.582031-8-8-8-35.347656 0-64 28.652344-64 64s28.652344 64 64 64 64-28.652344 64-64c0-4.417969-3.582031-8-8-8zm-56 56c-24.96875.023438-45.789062-19.101562-47.875-43.984375-2.089844-24.886719 15.25-47.210937 39.875-51.351563v47.335938c0 4.417969 3.582031 8 8 8h47.335938c-3.933594 23.082031-23.921876 39.96875-47.335938 40zm0 0" fill="url(#g)"/><path d="m248 120h-16c-2.121094 0-4.15625.84375-5.65625 2.34375l-16 16 11.3125 11.3125 13.65625-13.65625h12.6875zm0 0" fill="url(#h)"/><path d="m264 120h32v16h-32zm0 0" fill="url(#i)"/><path d="m264 152h32v16h-32zm0 0" fill="url(#j)"/><path d="m56 296h96v16h-96zm0 0" fill="url(#k)"/><path d="m200 224h48v16h-48zm0 0" fill="url(#l)"/><path d="m256 232c0 13.253906 10.746094 24 24 24s24-10.746094 24-24-10.746094-24-24-24-24 10.746094-24 24zm24-8c4.417969 0 8 3.582031 8 8s-3.582031 8-8 8-8-3.582031-8-8 3.582031-8 8-8zm0 0" fill="url(#m)"/><path d="m392 40h48v16h-48zm0 0" fill="url(#n)"/><path d="m392 72h48v16h-48zm0 0" fill="url(#o)"/><path d="m392 104h16v16h-16zm0 0" fill="url(#d)"/><path d="m424 104h16v16h-16zm0 0" fill="url(#p)"/><path d="m456 272h-256c-13.253906 0-24 10.746094-24 24v160c0 13.253906 10.746094 24 24 24h256c13.253906 0 24-10.746094 24-24v-160c0-13.253906-10.746094-24-24-24zm-264 184v-160c0-4.417969 3.582031-8 8-8h216v176h-216c-4.417969 0-8-3.582031-8-8zm272 0c0 4.417969-3.582031 8-8 8h-24v-176h24c4.417969 0 8 3.582031 8 8zm0 0" fill="url(#q)"/><path d="m440 368h16v16h-16zm0 0" fill="url(#r)"/><path d="m384 424v-88h-16v88h-16v-64h-16v64h-16v-48h-16v48h-16v-72h-16v72h-16v-32h-16v32h-16v-104h-16v112c0 4.417969 3.582031 8 8 8h184v-16zm0 0" fill="url(#s)"/></svg>