<svg height="480pt" viewBox="0 -56 480.02946 480" width="480pt" xmlns="http://www.w3.org/2000/svg" xmlns:xlink="http://www.w3.org/1999/xlink"><linearGradient id="a"><stop offset="0" stop-color="#fff200"/><stop offset="1" stop-color="#cd118c"/></linearGradient><linearGradient id="b" gradientUnits="userSpaceOnUse" x1="-27.896" x2="467.648" xlink:href="#a" y1="411.92673" y2="-38.56927"/><linearGradient id="c" gradientUnits="userSpaceOnUse" x1="102.576" x2="598.12" xlink:href="#a" y1="555.43873" y2="104.94273"/><linearGradient id="d" gradientUnits="userSpaceOnUse" x1="-182.808" x2="312.744" xlink:href="#a" y1="241.51873" y2="-208.96927"/><linearGradient id="e" gradientUnits="userSpaceOnUse" x1="-28.256" x2="467.288" xlink:href="#a" y1="411.51873" y2="-38.96927"/><linearGradient id="f" gradientUnits="userSpaceOnUse" x1="-57.944" x2="437.6" xlink:href="#a" y1="378.87073" y2="-71.62527"/><linearGradient id="g" gradientUnits="userSpaceOnUse" x1="-55.28" x2="440.264" xlink:href="#a" y1="381.79873" y2="-68.69727"/><linearGradient id="h" gradientUnits="userSpaceOnUse" x1="-25.184" x2="470.36" xlink:href="#a" y1="414.91073" y2="-35.58527"/><linearGradient id="i" gradientUnits="userSpaceOnUse" x1="-59.568" x2="435.976" xlink:href="#a" y1="377.07873" y2="-73.41727"/><linearGradient id="j" gradientUnits="userSpaceOnUse" x1="-27.712" x2="467.832" xlink:href="#a" y1="412.11873" y2="-38.37727"/><linearGradient id="k" gradientUnits="userSpaceOnUse" x1="5.584" x2="501.136" xlink:href="#a" y1="448.75073" y2="-1.74527"/><path d="m416 224.488281v-208.472656c0-8.835937-7.164062-16-16-16h-384c-8.835938 0-16 7.164063-16 16v272c0 8.835937 7.164062 16 16 16h160v16h-64c-4.417969 0-8 3.582031-8 8v32c0 4.417969 3.582031 8 8 8h192c4.417969 0 8-3.582031 8-8v-32c0-4.417969-3.582031-8-8-8h-64v-16h96.472656c4.171875 37.46875 36.542969 65.375 74.21875 63.980469 37.675782-1.394532 67.894532-31.617188 69.289063-69.289063 1.394531-37.675781-26.511719-70.046875-63.980469-74.21875zm-16-208.472656v208.472656c-17.546875 1.980469-33.75 10.355469-45.511719 23.527344h-338.488281v-232zm-384 248h327.601562c-3.773437 7.515625-6.1875 15.640625-7.128906 24h-320.472656zm280 88h-176v-16h176zm-72-32h-32v-16h32zm184 32c-30.929688 0-56-25.074219-56-56 0-30.929687 25.070312-56 56-56s56 25.070313 56 56c-.035156 30.914063-25.085938 55.964844-56 56zm0 0" fill="url(#b)"/><path d="m400 291.734375-20.441406 13.601563 8.882812 13.3125 24-16c2.214844-1.480469 3.550782-3.96875 3.558594-6.632813v-40h-16zm0 0" fill="url(#c)"/><path d="m40 40.015625h16v-16h-24c-4.417969 0-8 3.582031-8 8v32h16zm0 0" fill="url(#d)"/><path d="m376 64.015625h16v-32c0-4.417969-3.582031-8-8-8h-24v16h16zm0 0" fill="url(#e)"/><path d="m72 224.015625h256v-16h-248v-136h-16v144c0 4.417969 3.582031 8 8 8zm0 0" fill="url(#f)"/><path d="m137.238281 162.085938 34.640625 20.800781c2.648438 1.589843 5.972656 1.515625 8.546875-.191407l91.628907-60.863281c4.363281 3.964844 10.046874 6.171875 15.945312 6.183594 13.253906 0 24-10.746094 24-24s-10.746094-24-24-24-24 10.746094-24 24c.027344 1.238281.152344 2.476563.375 3.695313l-88.589844 58.839843-35.664062-21.390625c-3.148438-1.894531-7.179688-1.398437-9.777344 1.199219l-32 32 11.3125 11.3125zm150.761719-66.070313c4.417969 0 8 3.582031 8 8s-3.582031 8-8 8-8-3.582031-8-8 3.582031-8 8-8zm0 0" fill="url(#g)"/><path d="m256 144.015625h16v16h-16zm0 0" fill="url(#h)"/><path d="m136 184.015625h16v16h-16zm0 0" fill="url(#i)"/><path d="m224 168.015625h16v16h-16zm0 0" fill="url(#j)"/><path d="m280 184.015625h16v16h-16zm0 0" fill="url(#k)"/></svg>