<svg height="480pt" viewBox="0 -72 480 480" width="480pt" xmlns="http://www.w3.org/2000/svg" xmlns:xlink="http://www.w3.org/1999/xlink"><linearGradient id="a"><stop offset="0" stop-color="#fff200"/><stop offset="1" stop-color="#cd118c"/></linearGradient><linearGradient id="b" gradientUnits="userSpaceOnUse" x1="-27.504" x2="490.568" xlink:href="#a" y1="429.848" y2="-88.224"/><linearGradient id="c" gradientUnits="userSpaceOnUse" x1="-77.848" x2="440.224" xlink:href="#a" y1="379.504" y2="-138.568"/><linearGradient id="d" gradientUnits="userSpaceOnUse" x1="-4.672" x2="513.392" xlink:href="#a" y1="452.672" y2="-65.392"/><linearGradient id="e" gradientUnits="userSpaceOnUse" x1="11.328" x2="529.392" xlink:href="#a" y1="468.672" y2="-49.392"/><linearGradient id="f" gradientUnits="userSpaceOnUse" x1="27.328" x2="545.392" xlink:href="#a" y1="484.672" y2="-33.392"/><linearGradient id="g" gradientUnits="userSpaceOnUse" x1="47.328" x2="565.392" xlink:href="#a" y1="504.672" y2="-13.392"/><linearGradient id="h" gradientUnits="userSpaceOnUse" x1="63.328" x2="581.392" xlink:href="#a" y1="520.672" y2="2.608"/><linearGradient id="i" gradientUnits="userSpaceOnUse" x1="79.328" x2="597.392" xlink:href="#a" y1="536.672" y2="18.608"/><linearGradient id="j" gradientUnits="userSpaceOnUse" x1="99.328" x2="617.392" xlink:href="#a" y1="556.672" y2="38.608"/><linearGradient id="k" gradientUnits="userSpaceOnUse" x1="115.328" x2="633.392" xlink:href="#a" y1="572.672" y2="54.608"/><linearGradient id="l" gradientUnits="userSpaceOnUse" x1="131.328" x2="649.392" xlink:href="#a" y1="588.672" y2="70.608"/><linearGradient id="m" gradientUnits="userSpaceOnUse" x1="-156.672" x2="361.392" xlink:href="#a" y1="300.672" y2="-217.392"/><linearGradient id="n" gradientUnits="userSpaceOnUse" x1="-106.672" x2="411.392" xlink:href="#a" y1="350.672" y2="-167.392"/><linearGradient id="o" gradientUnits="userSpaceOnUse" x1="-68.672" x2="449.392" xlink:href="#a" y1="388.672" y2="-129.392"/><linearGradient id="p" gradientUnits="userSpaceOnUse" x1="-18.672" x2="499.392" xlink:href="#a" y1="438.672" y2="-79.392"/><path d="m352 112h112c8.835938 0 16-7.164062 16-16v-48c0-8.835938-7.164062-16-16-16h-112c-8.835938 0-16 7.164062-16 16v16h-32c-4.417969 0-8 3.582031-8 8v96h-40v-104c0-2.304688-.996094-4.496094-2.726562-6.015625l-64-56c-1.460938-1.277344-3.332032-1.984375-5.273438-1.984375h-160c-13.253906 0-24 10.746094-24 24v288c0 13.253906 10.746094 24 24 24h208c13.253906 0 24-10.746094 24-24v-128h40v96c0 4.417969 3.582031 8 8 8h32v16c0 8.835938 7.164062 16 16 16h112c8.835938 0 16-7.164062 16-16v-48c0-8.835938-7.164062-16-16-16h-112c-8.835938 0-16 7.164062-16 16v16h-24v-88h24v16c0 8.835938 7.164062 16 16 16h112c8.835938 0 16-7.164062 16-16v-48c0-8.835938-7.164062-16-16-16h-112c-8.835938 0-16 7.164062-16 16v16h-24v-88h24v16c0 8.835938 7.164062 16 16 16zm0-64h112v48h-112zm-160-22.398438 34.710938 30.398438h-34.710938zm48 286.398438c0 4.417969-3.582031 8-8 8h-208c-4.417969 0-8-3.582031-8-8v-288c0-4.417969 3.582031-8 8-8h152v48c0 4.417969 3.582031 8 8 8h56v96h-56.640625c-4.195313-29.070312-30.140625-49.960938-59.433594-47.855469-29.296875 2.101563-51.992187 26.484375-51.992187 55.855469s22.695312 53.753906 51.992187 55.855469c29.292969 2.105469 55.238281-18.785157 59.433594-47.855469h56.640625zm-72-136c0 22.089844-17.910156 40-40 40s-40-17.910156-40-40 17.910156-40 40-40c22.082031.027344 39.972656 17.917969 40 40zm184 80h112v48h-112zm0-104h112v48h-112zm0 0" fill="url(#b)"/><path d="m120 180.6875-10.34375-10.34375-11.3125 11.3125 16 16c3.125 3.121094 8.1875 3.121094 11.3125 0l32-32-11.3125-11.3125zm0 0" fill="url(#c)"/><path d="m368 64h16v16h-16zm0 0" fill="url(#d)"/><path d="m400 64h16v16h-16zm0 0" fill="url(#e)"/><path d="m432 64h16v16h-16zm0 0" fill="url(#f)"/><path d="m368 168h16v16h-16zm0 0" fill="url(#g)"/><path d="m400 168h16v16h-16zm0 0" fill="url(#h)"/><path d="m432 168h16v16h-16zm0 0" fill="url(#i)"/><path d="m368 272h16v16h-16zm0 0" fill="url(#j)"/><path d="m400 272h16v16h-16zm0 0" fill="url(#k)"/><path d="m432 272h16v16h-16zm0 0" fill="url(#l)"/><path d="m40 80h32v16h-32zm0 0" fill="url(#m)"/><path d="m96 80h120v16h-120zm0 0" fill="url(#n)"/><path d="m40 256h32v16h-32zm0 0" fill="url(#o)"/><path d="m96 256h120v16h-120zm0 0" fill="url(#p)"/></svg>