<svg height="485pt" viewBox="-7 0 485 485.32188" width="485pt" xmlns="http://www.w3.org/2000/svg" xmlns:xlink="http://www.w3.org/1999/xlink"><linearGradient id="a"><stop offset="0" stop-color="#fff200"/><stop offset="1" stop-color="#cd118c"/></linearGradient><linearGradient id="b" gradientUnits="userSpaceOnUse" x1="-144.55106" x2="350.99294" xlink:href="#a" y1="324.667894" y2="-161.860106"/><linearGradient id="c" gradientUnits="userSpaceOnUse" x1="-124.55906" x2="370.99294" xlink:href="#a" y1="345.035894" y2="-141.500106"/><linearGradient id="d" gradientUnits="userSpaceOnUse" x1="-104.55906" x2="390.98494" xlink:href="#a" y1="365.403894" y2="-121.132106"/><linearGradient id="e" gradientUnits="userSpaceOnUse" x1="-33.62306" x2="461.92094" xlink:href="#a" y1="437.651894" y2="-48.884106"/><linearGradient id="f" gradientUnits="userSpaceOnUse" x1="-7.88706" x2="487.65694" xlink:href="#a" y1="463.867894" y2="-22.668106"/><linearGradient id="g" gradientUnits="userSpaceOnUse" x1="16.36894" x2="511.91294" xlink:href="#a" y1="488.571894" y2="2.035894"/><linearGradient id="h" gradientUnits="userSpaceOnUse" x1="77.95294" x2="573.49694" xlink:href="#a" y1="551.299894" y2="64.763894"/><path d="m32.160156 96.042969h96v16h-96zm0 0" fill="url(#b)"/><path d="m32.160156 136.042969h96v16h-96zm0 0" fill="url(#c)"/><path d="m32.160156 176.042969h96v16h-96zm0 0" fill="url(#d)"/><path d="m442.839844 22.445312c-24.183594-21.660156-58.328125-28.242187-88.828125-17.128906-30.503907 11.113282-52.410157 38.117188-56.996094 70.253906-5.480469 37.28125 13.511719 73.886719 47.144531 90.875v41.597657c.023438 19 13.390625 35.375 32 39.199219v136.800781h-53.765625c1.566407-2.667969 3.867188-4.824219 6.628907-6.214844 3.34375-1.679687 5.078124-5.449219 4.175781-9.082031-2.28125-9.15625-5.914063-17.925782-10.773438-26.015625-1.925781-3.210938-5.820312-4.65625-9.375-3.480469-5.71875 1.960938-12.050781.496094-16.320312-3.777344-4.273438-4.277344-5.734375-10.609375-3.769531-16.324218 1.175781-3.554688-.269532-7.449219-3.480469-9.375-8.089844-4.855469-16.855469-8.484376-26.007813-10.769532-3.625-.90625-7.398437.824219-9.078125 4.160156-2.65625 5.433594-8.175781 8.878907-14.226562 8.878907-6.046875 0-11.566407-3.445313-14.222657-8.878907-1.683593-3.335937-5.453124-5.066406-9.082031-4.160156-9.152343 2.285156-17.917969 5.914063-26.007812 10.769532-3.210938 1.925781-4.65625 5.820312-3.480469 9.375 1.964844 5.714843.5 12.050781-3.773438 16.324218-4.277343 4.277344-10.613281 5.738282-16.328124 3.769532-3.554688-1.175782-7.449219.269531-9.375 3.480468-4.863282 8.089844-8.496094 16.859375-10.777344 26.015625-.902344 3.632813.832031 7.402344 4.175781 9.082031 2.761719 1.390626 5.066406 3.546876 6.632813 6.214844h-69.769532v-151.992187h64c4.417969 0 8-3.582031 8-8v-152c0-2.121094-.84375-4.15625-2.34375-5.65625l-40-40c-1.5-1.5-3.535156-2.34375-5.65625-2.34375h-104c-4.417968 0-8 3.582031-8 8v192c0 4.417969 3.582032 8 8 8h64v160c0 4.417969 3.582032 8 8 8h77.769532c-1.566407 2.667969-3.871094 4.828125-6.632813 6.21875-3.34375 1.675781-5.078125 5.449219-4.175781 9.078125 2.28125 9.160156 5.914062 17.925781 10.777344 26.015625 1.925781 3.210937 5.820312 4.65625 9.375 3.480469 5.714843-1.960938 12.046874-.492188 16.320312 3.78125 4.269531 4.273437 5.730469 10.609374 3.765625 16.324218-1.175781 3.554688.269531 7.449219 3.480469 9.375 8.089844 4.855469 16.855468 8.484375 26.007812 10.765625 3.628906.90625 7.398438-.820312 9.082032-4.15625 2.65625-5.4375 8.175781-8.882812 14.222656-8.882812 6.050781 0 11.570312 3.445312 14.222656 8.882812 1.683594 3.335938 5.457031 5.0625 9.082031 4.15625 9.15625-2.277343 17.921875-5.90625 26.007813-10.765625 3.210937-1.925781 4.65625-5.820312 3.480468-9.375-1.964843-5.71875-.5-12.054687 3.777344-16.328125 4.273438-4.273437 10.609375-5.738281 16.328125-3.769531 3.554688 1.175781 7.449219-.269531 9.375-3.480469 4.859375-8.089843 8.492188-16.855469 10.773438-26.015625.90625-3.628906-.824219-7.398437-4.167969-9.078125-2.761719-1.398437-5.0625-3.558593-6.628906-6.226562h61.757812c4.417969 0 8-3.582031 8-8v-144.800781c18.613282-3.824219 31.976563-20.199219 32-39.199219v-41.648438c25.847656-13.191406 43.527344-38.277343 47.261719-67.054687s-6.957031-57.542969-28.582031-76.894532zm-322.679688 28.910157 12.6875 12.6875h-12.6875zm-104-11.3125h88v32c0 4.417969 3.582032 8 8 8h32v136h-128zm295.28125 388.144531c-9.609375-1.078125-19.1875 2.273438-26.027344 9.109375-6.835937 6.839844-10.191406 16.417969-9.109374 26.027344-3.652344 1.863281-7.445313 3.441406-11.34375 4.71875-6.03125-7.558594-15.171876-11.957031-24.839844-11.957031-9.667969 0-18.8125 4.398437-24.839844 11.957031-3.882812-1.265625-7.660156-2.832031-11.304688-4.679688 1.082032-9.609375-2.273437-19.1875-9.109374-26.023437-6.839844-6.839844-16.417969-10.191406-26.027344-9.113282-1.847656-3.636718-3.410156-7.414062-4.671875-11.292968 7.554687-6.039063 11.953125-15.179688 11.953125-24.851563 0-9.667969-4.398438-18.808593-11.953125-24.847656 1.261719-3.878906 2.824219-7.65625 4.671875-11.292969 9.609375 1.078125 19.1875-2.273437 26.027344-9.113281 6.835937-6.835937 10.191406-16.414063 9.109374-26.023437 3.644532-1.847657 7.421876-3.414063 11.304688-4.679688 6.027344 7.558594 15.171875 11.957031 24.839844 11.957031 9.667968 0 18.808594-4.398437 24.839844-11.957031 3.882812 1.269531 7.660156 2.832031 11.304687 4.679688-1.082031 9.609374 2.273437 19.1875 9.109375 26.023437 6.839844 6.839844 16.417969 10.191406 26.027344 9.113281 1.847656 3.636719 3.410156 7.414063 4.671875 11.292969-7.558594 6.035156-11.957031 15.175781-11.957031 24.84375 0 9.671875 4.398437 18.8125 11.957031 24.847656-1.253907 3.867188-2.804688 7.632813-4.632813 11.261719zm72.71875-196.144531c-13.253906 0-24-10.746094-24-24v-24h48v8h-24v16h24c0 13.253906-10.746094 24-24 24zm28.800782-78.03125c-2.914063 1.273437-4.796876 4.148437-4.800782 7.328125v6.703125h-48v-6.703125c0-3.179688-1.886718-6.054688-4.800781-7.328125-29.820313-13.027344-47.199219-44.441407-42.386719-76.625 4.8125-32.1875 30.617188-57.144531 62.949219-60.878907 2.765625-.308593 5.550781-.464843 8.335937-.464843 17.691407-.054688 34.773438 6.484375 47.902344 18.34375 18.261719 16.347656 26.953125 40.859375 23.066406 65.054687-3.882812 24.199219-19.808593 44.757813-42.265624 54.570313zm0 0" fill="url(#e)"/><path d="m368.160156 72.042969h-32c-4.417968 0-8 3.582031-8 8v32c0 4.417969 3.582032 8 8 8h16v-16h-8v-16h16v56h16v-64c0-4.417969-3.582031-8-8-8zm0 0" fill="url(#f)"/><path d="m432.160156 72.042969h-32c-4.417968 0-8 3.582031-8 8v64h16v-56h16v16h-8v16h16c4.417969 0 8-3.582031 8-8v-32c0-4.417969-3.582031-8-8-8zm0 0" fill="url(#g)"/><path d="m240.160156 344.042969c-26.507812 0-48 21.492187-48 48 0 26.511719 21.492188 48 48 48 26.511719 0 48-21.488281 48-48-.027344-26.496094-21.5-47.972657-48-48zm0 80c-17.671875 0-32-14.324219-32-32 0-17.671875 14.328125-32 32-32 17.675782 0 32 14.328125 32 32 0 17.675781-14.324218 32-32 32zm0 0" fill="url(#h)"/></svg>