<svg height="480pt" viewBox="0 0 480 480" width="480pt" xmlns="http://www.w3.org/2000/svg" xmlns:xlink="http://www.w3.org/1999/xlink"><linearGradient id="a"><stop offset="0" stop-color="#fff200"/><stop offset="1" stop-color="#cd118c"/></linearGradient><linearGradient id="b" gradientUnits="userSpaceOnUse" x1="-110.368" x2="439.24" xlink:href="#a" y1="388.616" y2="-88.912"/><linearGradient id="c" gradientUnits="userSpaceOnUse" x1="-82.84" x2="466.768" xlink:href="#a" y1="420.304" y2="-57.224"/><linearGradient id="d" gradientUnits="userSpaceOnUse" x1="-99.944" x2="449.664" xlink:href="#a" y1="400.616" y2="-76.912"/><linearGradient id="e" gradientUnits="userSpaceOnUse" x1="5.168" x2="554.768" xlink:href="#a" y1="521.592" y2="44.064"/><linearGradient id="f" gradientUnits="userSpaceOnUse" x1="-1.12" x2="548.48" xlink:href="#a" y1="514.352" y2="36.824"/><linearGradient id="g" gradientUnits="userSpaceOnUse" x1="5.936" x2="555.544" xlink:href="#a" y1="522.472" y2="44.952"/><path d="m224 112c0 8.835938-7.164062 16-16 16s-16-7.164062-16-16 7.164062-16 16-16 16 7.164062 16 16zm0 0" fill="url(#b)"/><path d="m288 112c0 8.835938-7.164062 16-16 16s-16-7.164062-16-16 7.164062-16 16-16 16 7.164062 16 16zm0 0" fill="url(#c)"/><path d="m72 256h16v-16h-24c-4.417969 0-8 3.582031-8 8v24h16zm0 0" fill="url(#d)"/><path d="m217.886719 358.398438c6.023437 4.222656 13.800781 5.039062 20.570312 2.152343.710938-.214843 1.359375-.453125 1.167969-.542969.648438.140626 1.289062.324219 1.917969.542969 2.972656 1.035157 6.085937 1.605469 9.234375 1.695313 4.101562.03125 8.097656-1.324219 11.335937-3.847656 10.265625-6.894532 16.84375-18.074219 17.886719-30.398438-.03125-14.28125-7.644531-27.472656-20-34.640625-3.839844-2.121094-8.449219-2.320313-12.457031-.535156-3.789063-10.117188-9.921875-19.191407-17.894531-26.480469l-11.3125 11.3125c4.421874 4.40625 8.378906 9.25 11.808593 14.464844-3.414062-.976563-7.078125-.53125-10.160156 1.230468-12.347656 7.175782-19.957031 20.367188-19.984375 34.648438 1.042969 12.324219 7.621094 23.503906 17.886719 30.398438zm9.097656-50.535157c.664063.273438 1.601563.703125 2.230469 1.03125 6.589844 4.195313 15.011718 4.195313 21.601562 0 .664063-.328125 1.597656-.757812 2.230469-1.03125 6.816406 4.433594 10.9375 12.007813 10.953125 20.136719-1.242188 7.222656-5.4375 13.597656-11.574219 17.601562-1.136719.863282-2.296875.796876-6.179687-.402343-4-1.640625-8.492188-1.640625-12.492188 0-3.882812 1.191406-5.035156 1.265625-6.179687.402343-6.136719-4.003906-10.332031-10.378906-11.574219-17.601562.011719-8.148438 4.144531-15.738281 10.984375-20.167969zm0 0" fill="url(#e)"/><path d="m256 280-8 8h24zm0 0" fill="url(#f)"/><path d="m462.34375 424.960938c1.078125-2.667969 1.640625-5.515626 1.65625-8.394532v-185.132812c-.175781-13.089844-10.910156-23.570313-24-23.433594h-54.792969l-77.648437-23.929688c.90625-1.09375 1.890625-2.109374 2.746094-3.253906 11.527343-15.191406 17.742187-33.746094 17.695312-52.816406v-56c-.042969-39.746094-32.253906-71.9570312-72-72h-32c-39.746094.0429688-71.957031 32.253906-72 72v56c-.0625 19.035156 6.121094 37.566406 17.601562 52.753906.878907 1.191406 1.941407 2.214844 2.886719 3.359375l-77.695312 23.886719h-54.792969c-13.089844-.136719-23.824219 10.34375-24 23.433594v185.132812c.015625 2.878906.578125 5.726563 1.65625 8.394532-10.390625 2.847656-17.609375 12.265624-17.65625 23.039062v8c0 13.253906 10.746094 24 24 24h432c13.253906 0 24-10.746094 24-24v-8c-.046875-10.773438-7.265625-20.191406-17.65625-23.039062zm-167.648438-228.105469 36.175782 11.144531h-54.335938c6.492188-2.949219 12.589844-6.691406 18.160156-11.144531zm-70.695312-180.855469h32c21.511719.039062 41.101562 12.398438 50.398438 31.800781-.796876.046875-1.597657.199219-2.398438.199219-13.882812-.054688-26.761719-7.261719-34.070312-19.0625-1.375-2.234375-3.753907-3.652344-6.371094-3.796875-2.617188-.144531-5.136719 1-6.75 3.066406-13.59375 17.582031-34.585938 27.851563-56.808594 27.792969-9.5-.019531-18.902344-1.921875-27.664062-5.601562 8.726562-20.820313 29.089843-34.375 51.664062-34.398438zm-56 112v-56c.007812-2.019531.117188-4.035156.335938-6.039062 10.089843 3.949218 20.828124 5.996093 31.664062 6.039062 23.578125.070312 46.1875-9.394531 62.679688-26.246094 10.628906 11.570313 25.605468 18.183594 41.320312 18.246094 2.433594-.042969 4.859375-.25 7.265625-.617188.46875 2.851563.714844 5.730469.734375 8.617188v56c-.007812 29.113281-17.554688 55.359375-44.453125 66.5-26.898437 11.136719-57.859375 4.980469-78.449219-15.605469-2.402344-2.398437-4.621094-4.976562-6.632812-7.710937-9.421875-12.421875-14.5-27.59375-14.464844-43.183594zm17.359375 68.910156c5.566406 4.421875 11.652344 8.144532 18.121094 11.089844h-54.207031zm-153.359375 34.523438c.164062-4.257813 3.742188-7.582032 8-7.433594h400c4.257812-.148438 7.835938 3.175781 8 7.433594v185.132812c-.164062 4.257813-3.742188 7.582032-8 7.433594h-400c-4.257812.148438-7.835938-3.175781-8-7.433594zm432 224.566406c0 4.417969-3.582031 8-8 8h-432c-4.417969 0-8-3.582031-8-8v-8c0-4.417969 3.582031-8 8-8h432c4.417969 0 8 3.582031 8 8zm0 0" fill="url(#g)"/></svg>